<svg width="24" height="24" viewBox="0 0 24 24" fill="none" xmlns="http://www.w3.org/2000/svg">
<path fill-rule="evenodd" clip-rule="evenodd" d="M14.0418 7.19131C14.5623 6.58629 14.8115 5.79404 14.731 5C13.216 5.013 11.594 6.909 11.978 8.2C12.7752 8.16101 13.5213 7.79632 14.0418 7.19131ZM15.7929 12.6283C15.7127 11.4644 16.2862 10.3524 17.281 9.743C17.2668 9.72451 17.2534 9.704 17.2398 9.68327C17.2218 9.65579 17.2035 9.62794 17.183 9.604C17.1126 9.51069 17.0361 9.42216 16.954 9.339C15.9961 8.37461 14.5482 8.08923 13.296 8.618C12.6144 8.86729 12.3418 9.00323 12.0662 9.00945C11.7891 9.01571 11.509 8.89077 10.807 8.618C10.1822 8.36733 9.48956 8.34188 8.848 8.546C7.38448 9.04473 6.37112 10.3831 6.288 11.927C6.16857 13.5001 6.51016 15.0739 7.271 16.456C7.66347 17.2511 8.19908 17.967 8.851 18.568C9.30028 18.9921 9.95414 19.1183 10.529 18.892C10.6652 18.8492 10.7988 18.7985 10.929 18.74C11.7485 18.3357 12.7095 18.3357 13.529 18.74C14.3726 19.2362 15.4566 18.992 16.006 18.182C16.6318 17.4639 17.134 16.6467 17.492 15.764C17.5343 15.6566 17.5716 15.5473 17.6086 15.4393C17.6266 15.3865 17.6446 15.3339 17.663 15.282C16.5939 14.8149 15.8732 13.7922 15.7929 12.6283Z" fill="#42526E"/>
</svg>
