<svg width="31" height="32" viewBox="0 0 31 32" fill="none" xmlns="http://www.w3.org/2000/svg">
<path d="M15.3614 19.8182C20.106 19.8182 23.9523 16.1143 23.9523 11.5454C23.9523 6.97653 20.106 3.27271 15.3614 3.27271C10.6168 3.27271 6.77051 6.97653 6.77051 11.5454C6.77051 16.1143 10.6168 19.8182 15.3614 19.8182Z" fill="#1C2A3A"/>
<path d="M20.1852 20.5946C20.6052 20.3782 21.0888 20.6964 21.0888 21.1673V27.3401C21.0888 28.4855 20.287 29.0455 19.2943 28.5746L15.8834 26.9582C15.5906 26.831 15.1325 26.831 14.8397 26.9582L11.4288 28.5746C10.4361 29.0328 9.63428 28.4728 9.63428 27.3273L9.65973 21.1673C9.65973 20.6964 10.1561 20.391 10.5634 20.5946C12.0015 21.3201 13.6306 21.7273 15.3615 21.7273C17.0925 21.7273 18.7343 21.3201 20.1852 20.5946Z" fill="#1C2A3A"/>
</svg>
