<svg width="32" height="32" viewBox="0 0 32 32" fill="none" xmlns="http://www.w3.org/2000/svg">
<path d="M17.5143 8.36362H9.36882C9.03792 8.36362 8.71973 8.37634 8.41428 8.41453C4.99064 8.70725 3.27246 10.7309 3.27246 14.46V19.5509C3.27246 24.6418 5.30882 25.6473 9.36882 25.6473H9.87792C10.1579 25.6473 10.527 25.8382 10.6925 26.0545L12.2197 28.0909C12.8943 28.9945 13.9888 28.9945 14.6634 28.0909L16.1906 26.0545C16.3816 25.8 16.687 25.6473 17.0052 25.6473H17.5143C21.2434 25.6473 23.267 23.9418 23.5597 20.5054C23.5979 20.2 23.6106 19.8818 23.6106 19.5509V14.46C23.6106 10.4 21.5743 8.36362 17.5143 8.36362ZM8.99973 18.5454C8.28701 18.5454 7.72701 17.9727 7.72701 17.2727C7.72701 16.5727 8.29973 16 8.99973 16C9.69973 16 10.2725 16.5727 10.2725 17.2727C10.2725 17.9727 9.69973 18.5454 8.99973 18.5454ZM13.4416 18.5454C12.7288 18.5454 12.1688 17.9727 12.1688 17.2727C12.1688 16.5727 12.7416 16 13.4416 16C14.1416 16 14.7143 16.5727 14.7143 17.2727C14.7143 17.9727 14.1543 18.5454 13.4416 18.5454ZM17.8961 18.5454C17.1834 18.5454 16.6234 17.9727 16.6234 17.2727C16.6234 16.5727 17.1961 16 17.8961 16C18.5961 16 19.1688 16.5727 19.1688 17.2727C19.1688 17.9727 18.5961 18.5454 17.8961 18.5454Z" fill="#1C2A3A"/>
<path d="M28.7016 9.36907V14.46C28.7016 17.0054 27.9126 18.7363 26.3344 19.6909C25.9526 19.92 25.5071 19.6145 25.5071 19.1691L25.5198 14.46C25.5198 9.36907 22.6053 6.45452 17.5144 6.45452L9.76346 6.46725C9.31801 6.46725 9.01255 6.0218 9.24164 5.63998C10.1962 4.0618 11.9271 3.27271 14.4598 3.27271H22.6053C26.6653 3.27271 28.7016 5.30907 28.7016 9.36907Z" fill="#1C2A3A"/>
</svg>
