<svg width="34" height="34" viewBox="0 0 34 34" fill="none" xmlns="http://www.w3.org/2000/svg">
<path d="M22.6668 2.83325H11.3335C5.66683 2.83325 2.8335 5.66659 2.8335 11.3333V29.7499C2.8335 30.5291 3.471 31.1666 4.25016 31.1666H22.6668C28.3335 31.1666 31.1668 28.3333 31.1668 22.6666V11.3333C31.1668 5.66659 28.3335 2.83325 22.6668 2.83325Z" fill="#1C2A3A"/>
<path d="M23.4455 10.5684C21.6605 8.78336 19.9322 8.74086 18.1047 10.5684L16.9855 11.6875C16.8864 11.7867 16.8581 11.9284 16.8864 12.0559C17.5806 14.4925 19.5214 16.4334 21.958 17.1275C21.9864 17.1417 22.0289 17.1417 22.0714 17.1417C22.1705 17.1417 22.2697 17.0992 22.3405 17.0284L23.4455 15.9234C24.3522 15.0167 24.7914 14.1525 24.7914 13.2742C24.7914 12.3534 24.3522 11.475 23.4455 10.5684Z" fill="white"/>
<path d="M20.3148 17.9491C20.0456 17.8216 19.7906 17.6941 19.5498 17.5383C19.3514 17.4249 19.1532 17.2974 18.969 17.1558C18.8132 17.0566 18.6289 16.9149 18.4448 16.7591C18.4164 16.7449 18.3598 16.7024 18.289 16.6174C17.9915 16.3624 17.6514 16.0224 17.3398 15.6683C17.3114 15.6541 17.269 15.5833 17.2123 15.4983C17.1131 15.3849 16.9715 15.2008 16.8298 15.0024C16.7165 14.8608 16.589 14.6624 16.4756 14.4641C16.334 14.2233 16.1923 13.9683 16.079 13.7133C15.9515 13.4299 15.8523 13.1749 15.7531 12.9199L10.4123 18.2608C10.0581 18.6149 9.73231 19.2666 9.66147 19.7483L9.25063 22.6949C9.15146 23.3183 9.33561 23.8991 9.71811 24.2958C10.0439 24.6216 10.4973 24.7916 10.9931 24.7916C11.1065 24.7916 11.2056 24.7774 11.3189 24.7633L14.2656 24.3524C14.7473 24.2816 15.399 23.9558 15.7531 23.6016L21.094 18.2608C20.839 18.1616 20.584 18.0624 20.3148 17.9491Z" fill="white"/>
</svg>
