<svg width="32" height="32" viewBox="0 0 32 32" fill="none" xmlns="http://www.w3.org/2000/svg">
<path d="M12.1817 3.27271C8.84714 3.27271 6.13623 5.98361 6.13623 9.31816C6.13623 12.5891 8.69441 15.2363 12.029 15.3509C12.1308 15.3382 12.2326 15.3382 12.309 15.3509C12.3344 15.3509 12.3471 15.3509 12.3726 15.3509C12.3853 15.3509 12.3853 15.3509 12.398 15.3509C15.6562 15.2363 18.2144 12.5891 18.2271 9.31816C18.2271 5.98361 15.5162 3.27271 12.1817 3.27271Z" fill="#1C2A3A"/>
<path d="M18.6471 18.7362C15.0962 16.3689 9.30532 16.3689 5.72895 18.7362C4.11259 19.818 3.22168 21.2816 3.22168 22.8471C3.22168 24.4125 4.11259 25.8635 5.71623 26.9325C7.49804 28.1289 9.83986 28.7271 12.1817 28.7271C14.5235 28.7271 16.8653 28.1289 18.6471 26.9325C20.2508 25.8507 21.1417 24.3998 21.1417 22.8216C21.129 21.2562 20.2508 19.8053 18.6471 18.7362Z" fill="#1C2A3A"/>
<path d="M26.1687 10.0692C26.3723 12.5383 24.616 14.7019 22.1851 14.9946C22.1723 14.9946 22.1723 14.9946 22.1596 14.9946H22.1214C22.0451 14.9946 21.9687 14.9946 21.9051 15.0201C20.6705 15.0837 19.5378 14.6892 18.6851 13.9637C19.996 12.7928 20.7469 11.0364 20.5941 9.12736C20.5051 8.09645 20.1487 7.15463 19.6142 6.35281C20.0978 6.11099 20.6578 5.95827 21.2305 5.90736C23.7251 5.69099 25.9523 7.54918 26.1687 10.0692Z" fill="#1C2A3A"/>
<path d="M28.7145 21.8417C28.6127 23.0762 27.8236 24.1453 26.5 24.8708C25.2273 25.5708 23.6236 25.9017 22.0327 25.8635C22.9491 25.0362 23.4836 24.0053 23.5854 22.9108C23.7127 21.3326 22.9618 19.818 21.46 18.6089C20.6073 17.9344 19.6145 17.3999 18.5327 17.0053C21.3454 16.1908 24.8836 16.738 27.06 18.4944C28.2309 19.4362 28.8291 20.6199 28.7145 21.8417Z" fill="#1C2A3A"/>
</svg>
