<svg width="73" height="73" viewBox="0 0 73 73" fill="none" xmlns="http://www.w3.org/2000/svg">
<path d="M33.3799 6.68001L16.8799 12.86C13.7299 14.06 11.1499 17.78 11.1499 21.17V45.47C11.1499 47.9 12.7399 51.11 14.6899 52.55L31.1899 64.88C34.0999 67.07 38.8699 67.07 41.7799 64.88L58.2799 52.55C60.2299 51.08 61.8199 47.9 61.8199 45.47V21.17C61.8199 17.81 59.2399 14.06 56.0899 12.89L39.5899 6.71001C37.9099 6.05001 35.0899 6.05001 33.3799 6.68001Z" fill="white"/>
<path d="M32.4797 43.19C31.9097 43.19 31.3397 42.98 30.8897 42.53L26.0597 37.7C25.1897 36.83 25.1897 35.39 26.0597 34.52C26.9297 33.65 28.3697 33.65 29.2397 34.52L32.4797 37.76L43.7897 26.45C44.6597 25.58 46.0997 25.58 46.9697 26.45C47.8397 27.32 47.8397 28.76 46.9697 29.63L34.0697 42.53C33.6197 42.98 33.0497 43.19 32.4797 43.19Z" fill="#292D32"/>
</svg>
