<svg width="21" height="21" viewBox="0 0 21 21" fill="none" xmlns="http://www.w3.org/2000/svg">
<path fill-rule="evenodd" clip-rule="evenodd" d="M10.6136 0.818176C9.9994 0.8496 9.39008 1.33064 8.91935 2.25988L7.1322 5.83418C6.89138 6.32849 6.24497 6.81014 5.69995 6.89886L2.46787 7.4312C0.401877 7.7861 -0.0797662 9.28173 1.40319 10.7647L3.92548 13.287C4.34374 13.7052 4.58457 14.5291 4.47049 15.1375L3.74803 18.2555C3.17766 20.7144 4.49584 21.665 6.66324 20.3849L9.69252 18.585C9.94502 18.4324 10.2764 18.3504 10.6136 18.3392V0.818176Z" fill="#1C2A3A"/>
<path fill-rule="evenodd" clip-rule="evenodd" d="M10.6138 18.3409C11.0044 18.3279 11.4028 18.4099 11.6953 18.5867L14.7245 20.3866C16.8919 21.6794 18.2101 20.7161 17.6398 18.2572L16.9173 15.1392C16.7779 14.5435 17.0187 13.7196 17.437 13.3013L19.9592 10.7791C21.4422 9.28343 20.9606 7.7878 18.8946 7.44558L15.6625 6.91324C15.1175 6.81184 14.471 6.34288 14.2302 5.84856L12.4431 2.27426C11.9379 1.27037 11.273 0.786168 10.6138 0.819883V18.3409Z" fill="#1C2A3A"/>
</svg>
