<svg width="16" height="17" viewBox="0 0 16 17" fill="none" xmlns="http://www.w3.org/2000/svg">
<path d="M14.1018 7.36124L12.2821 9.11486C12.0323 9.35528 11.8626 9.83611 11.9144 10.1802L12.1973 12.2356C12.3811 13.5508 11.5656 14.1212 10.3871 13.5084L8.38834 12.4618C8.05364 12.2874 7.50681 12.2968 7.18154 12.4901L5.43263 13.5131C4.05142 14.3192 3.22646 13.7111 3.59415 12.1554L4.10798 9.98225C4.20227 9.58626 4.02785 9.04415 3.73086 8.77545L2.07623 7.2811C0.893006 6.21101 1.22299 5.23991 2.81634 5.11735L4.83395 4.9665C5.21107 4.93822 5.66833 4.64123 5.84275 4.30653L6.88927 2.29835C7.50681 1.12455 8.50148 1.12927 9.10016 2.31249L10.0335 4.1604C10.1938 4.47153 10.5992 4.77322 10.9434 4.82508L13.4418 5.23049C14.79 5.45676 15.087 6.41371 14.1018 7.36124Z" fill="#FFD600"/>
</svg>
